<?xml version="1.0" encoding="UTF-8" standalone="no"?>
<!-- Created with Inkscape (http://www.inkscape.org/) -->

<svg
   width="200"
   height="200"
   viewBox="0 0 200 200"
   version="1.1"
   id="svg1"
   xmlns:xlink="http://www.w3.org/1999/xlink"
   xmlns="http://www.w3.org/2000/svg"
   xmlns:svg="http://www.w3.org/2000/svg">
  <defs
     id="defs1">
    <linearGradient
       id="linearGradient7">
      <stop
         style="stop-color:#0d770d;stop-opacity:1;"
         offset="0"
         id="stop8" />
      <stop
         style="stop-color:#0d780d;stop-opacity:1;"
         offset="0.93069088"
         id="stop10" />
      <stop
         style="stop-color:#0c400c;stop-opacity:1;"
         offset="1"
         id="stop9" />
    </linearGradient>
    <linearGradient
       id="linearGradient5">
      <stop
         style="stop-color:#d40000;stop-opacity:1;"
         offset="0.94686162"
         id="stop5" />
      <stop
         style="stop-color:#c40000;stop-opacity:0.99607843;"
         offset="0.96843845"
         id="stop7" />
      <stop
         style="stop-color:#790000;stop-opacity:0.99507391;"
         offset="1"
         id="stop6" />
    </linearGradient>
    <linearGradient
       xlink:href="#linearGradient5"
       id="linearGradient6"
       x1="144.88737"
       y1="39.32555"
       x2="141.85435"
       y2="140.88376"
       gradientUnits="userSpaceOnUse" />
    <linearGradient
       xlink:href="#linearGradient7"
       id="linearGradient9"
       x1="49.216946"
       y1="85.010048"
       x2="51.756641"
       y2="141.66698"
       gradientUnits="userSpaceOnUse" />
  </defs>
  <g
     id="layer1">
    <path
       d="M 75,140 V 68.998 c 0.0548,-5.196973 -0.672816,-6.016724 -4.69628,-4.071735 L 29.821138,85.097745 C 25.937116,87.117155 24.95496,89.641962 25,92.984542 V 138 l 2.140625,2 z"
       style="fill:url(#linearGradient9);fill-opacity:1;stroke:none;stroke-width:0.5;stroke-dasharray:none;stroke-opacity:1"
       id="path1-3" />
    <path
       d="M 175,27.403046 V 138.52664 L 173.6831,140 H 125 V 45.517696 c 0.0838,-7.982559 0.0751,-7.993605 7.23787,-11.63663 l 28.35402,-14.17701 c 13.3546,-6.801803 14.12423,-5.929474 14.40811,7.69899 z"
       style="fill:url(#linearGradient6);fill-opacity:1;stroke:none;stroke-width:0.5;stroke-dasharray:none;stroke-opacity:1"
       id="path1" />
    <path
       d="m 166.97353,148.05821 -36.90505,36.87331 C 124.44075,189.864 124.79184,189.89978 116.58804,190 H 82 c -6.856088,-0.0729 -6.793182,-0.0362 -13.104664,-6.10466 L 31.249999,146.25 C 26.034613,140.14747 25.743166,140.34572 25,138 c 1.995525,1.89056 2.515135,1.93104 3.947184,2 H 75 125 l 43.98748,0.006 c 4.70193,-0.18295 5.14349,-0.0259 6.0152,-1.86059 -0.0227,2.29942 -0.14285,2.00016 -8.02915,9.9128 z"
       style="fill:#eaba00;fill-opacity:1;stroke:none;stroke-width:1.5;stroke-dasharray:none;stroke-opacity:1"
       id="path1-6" />
  </g>
</svg>
